<svg xmlns="http://www.w3.org/2000/svg" width="244" height="38" viewBox="0 0 244 38" fill="none"><path d="M5.98413 19.4687C5.98413 16.8799 8.04504 14.7812 10.5873 14.7812L24.3968 14.7812C26.9391 14.7812 29 16.8799 29 19.4687C29 22.0576 26.9391 24.1562 24.3968 24.1562L10.5873 24.1562C8.04504 24.1562 5.98413 22.0576 5.98413 19.4687Z" fill="#FEFF00"></path><path d="M11.9683 8.6875C11.9683 6.09867 14.0292 4 16.5714 4H18.4127C20.955 4 23.0159 6.09867 23.0159 8.6875C23.0159 11.2763 20.955 13.375 18.4127 13.375H16.5714C14.0292 13.375 11.9683 11.2763 11.9683 8.6875Z" fill="#FEFF00"></path><path d="M0 29.3125C0 26.7237 2.06091 24.625 4.60317 24.625H6.44444C8.98671 24.625 11.0476 26.7237 11.0476 29.3125C11.0476 31.9013 8.98671 34 6.44444 34H4.60317C2.06091 34 0 31.9013 0 29.3125Z" fill="#FEFF00"></path><path d="M66.122 31.541V4H70.1457V31.541H66.122Z" fill="#FFFFF0"></path><path d="M93.8715 31.541V12.2623H97.4927L97.7744 14.9781C98.4182 13.9836 99.2765 13.2058 100.35 12.6448C101.423 12.0838 102.63 11.8033 103.971 11.8033C104.99 11.8033 105.916 11.9435 106.747 12.224C107.579 12.4791 108.316 12.8743 108.96 13.4098C109.604 13.9454 110.127 14.6084 110.53 15.3989C111.254 14.2769 112.22 13.3971 113.427 12.7596C114.661 12.122 115.962 11.8033 117.33 11.8033C118.966 11.8033 120.374 12.122 121.554 12.7596C122.735 13.3716 123.634 14.3024 124.251 15.5519C124.868 16.776 125.176 18.306 125.176 20.1421V31.541H121.192V20.5246C121.192 18.7395 120.803 17.388 120.025 16.4699C119.274 15.5519 118.161 15.0929 116.686 15.0929C115.693 15.0929 114.808 15.3352 114.03 15.8197C113.252 16.3042 112.635 17.0055 112.179 17.9235C111.75 18.8415 111.536 19.9636 111.536 21.2896V31.541H107.512V20.5246C107.512 18.7395 107.123 17.388 106.345 16.4699C105.594 15.5519 104.48 15.0929 103.005 15.0929C102.066 15.0929 101.208 15.3352 100.43 15.8197C99.6521 16.3042 99.0351 17.0055 98.5791 17.9235C98.1231 18.8415 97.8951 19.9636 97.8951 21.2896V31.541H93.8715Z" fill="#FFFFF0"></path><path d="M170.644 31.541V12.2623H174.266L174.628 15.8962C175.084 15.0291 175.674 14.3024 176.398 13.7158C177.122 13.1038 177.967 12.6321 178.933 12.3005C179.926 11.969 181.052 11.8033 182.313 11.8033V15.8579H180.864C180.033 15.8579 179.242 15.9599 178.49 16.1639C177.739 16.3424 177.069 16.6612 176.479 17.1202C175.915 17.5792 175.473 18.204 175.151 18.9945C174.829 19.7851 174.668 20.7668 174.668 21.9399V31.541H170.644Z" fill="#FFFFF0"></path><path d="M192.345 32C190.629 32 189.126 31.7322 187.839 31.1967C186.551 30.6612 185.532 29.9089 184.781 28.9399C184.03 27.9708 183.574 26.8361 183.413 25.5355H187.517C187.651 26.1475 187.906 26.7086 188.281 27.2186C188.684 27.7286 189.22 28.1366 189.891 28.4426C190.588 28.7486 191.406 28.9016 192.345 28.9016C193.231 28.9016 193.955 28.7869 194.518 28.5574C195.108 28.3024 195.537 27.9709 195.806 27.5628C196.074 27.1293 196.208 26.6703 196.208 26.1858C196.208 25.4718 196.02 24.9363 195.645 24.5792C195.296 24.1967 194.76 23.9035 194.035 23.6995C193.338 23.47 192.493 23.2659 191.5 23.0874C190.561 22.9344 189.649 22.7304 188.764 22.4754C187.906 22.1949 187.128 21.8506 186.431 21.4426C185.76 21.0346 185.223 20.5246 184.821 19.9126C184.419 19.275 184.218 18.4973 184.218 17.5792C184.218 16.4827 184.526 15.5009 185.143 14.6339C185.76 13.7413 186.632 13.0528 187.758 12.5683C188.912 12.0583 190.266 11.8033 191.822 11.8033C194.076 11.8033 195.886 12.3133 197.254 13.3333C198.622 14.3534 199.427 15.7942 199.669 17.6557H195.765C195.658 16.7887 195.256 16.1257 194.558 15.6667C193.861 15.1821 192.935 14.9399 191.782 14.9399C190.629 14.9399 189.743 15.1566 189.126 15.5902C188.509 16.0237 188.201 16.5975 188.201 17.3115C188.201 17.7705 188.375 18.1785 188.724 18.5355C189.073 18.8925 189.582 19.1985 190.253 19.4536C190.95 19.6831 191.795 19.8998 192.788 20.1038C194.21 20.3588 195.484 20.6776 196.61 21.0601C197.737 21.4426 198.636 22.0037 199.306 22.7432C199.977 23.4827 200.313 24.541 200.313 25.918C200.34 27.1166 200.017 28.1749 199.347 29.0929C198.703 30.0109 197.777 30.7249 196.57 31.235C195.39 31.745 193.982 32 192.345 32Z" fill="#FFFFF0"></path><path d="M212.916 32C210.958 32 209.215 31.5792 207.686 30.7377C206.157 29.8707 204.95 28.6849 204.064 27.1803C203.206 25.6758 202.777 23.929 202.777 21.9399C202.777 19.9253 203.206 18.1658 204.064 16.6612C204.95 15.1311 206.157 13.9454 207.686 13.1038C209.215 12.2368 210.958 11.8033 212.916 11.8033C215.384 11.8033 217.45 12.4153 219.113 13.6393C220.776 14.8634 221.836 16.5209 222.292 18.612H218.107C217.839 17.49 217.222 16.623 216.256 16.0109C215.317 15.3989 214.191 15.0929 212.876 15.0929C211.803 15.0929 210.811 15.3607 209.899 15.8962C208.987 16.4062 208.249 17.1712 207.686 18.1913C207.149 19.1858 206.881 20.4226 206.881 21.9016C206.881 22.9982 207.042 23.98 207.364 24.847C207.686 25.6885 208.115 26.4025 208.651 26.9891C209.215 27.5756 209.858 28.0219 210.583 28.3279C211.307 28.6084 212.071 28.7486 212.876 28.7486C213.761 28.7486 214.553 28.6211 215.25 28.3661C215.974 28.0856 216.578 27.6776 217.061 27.1421C217.57 26.6066 217.919 25.969 218.107 25.2295H222.292C221.836 27.2696 220.776 28.9144 219.113 30.1639C217.45 31.388 215.384 32 212.916 32Z" fill="#FFFFF0"></path><path d="M225.491 31.541V4H229.515V15.3989C230.185 14.2769 231.111 13.3971 232.291 12.7596C233.498 12.122 234.826 11.8033 236.275 11.8033C237.884 11.8033 239.265 12.122 240.419 12.7596C241.572 13.3716 242.458 14.3024 243.075 15.5519C243.692 16.776 244 18.3188 244 20.1803V31.541H240.017V20.5628C240.017 18.7778 239.614 17.4262 238.809 16.5082C238.005 15.5647 236.811 15.0929 235.228 15.0929C234.155 15.0929 233.19 15.3352 232.331 15.8197C231.473 16.3042 230.789 17.0182 230.279 17.9617C229.77 18.8798 229.515 20.0018 229.515 21.3279V31.541H225.491Z" fill="#FFFFF0"></path><path fill-rule="evenodd" clip-rule="evenodd" d="M156.806 32C155.142 32 153.761 31.7322 152.661 31.1967C151.561 30.6612 150.743 29.9472 150.207 29.0546C149.67 28.1366 149.402 27.1548 149.402 26.1093C149.402 24.8342 149.751 23.7505 150.448 22.8579C151.146 21.9399 152.138 21.2386 153.426 20.7541C154.713 20.2696 156.256 20.0273 158.053 20.0273H163.324C163.324 18.9053 163.149 17.9745 162.801 17.235C162.452 16.4955 161.929 15.9472 161.232 15.5902C160.561 15.2077 159.703 15.0164 158.656 15.0164C157.449 15.0164 156.417 15.2969 155.558 15.8579C154.7 16.3934 154.163 17.1967 153.949 18.2678H149.925C150.086 16.9162 150.569 15.7687 151.374 14.8251C152.205 13.8561 153.265 13.1166 154.552 12.6066C155.84 12.071 157.208 11.8033 158.656 11.8033C160.561 11.8033 162.157 12.122 163.445 12.7596C164.732 13.3971 165.698 14.3024 166.342 15.4754C167.012 16.623 167.347 18 167.347 19.6066C167.306 23.8596 166.095 30.0922 159.139 31.694C158.442 31.898 157.664 32 156.806 32ZM159.904 28.4044C159.206 28.7359 158.428 28.9016 157.57 28.9016C156.738 28.9016 156.028 28.7741 155.437 28.5191C154.847 28.2641 154.391 27.9199 154.069 27.4863C153.774 27.0273 153.627 26.4791 153.627 25.8415C153.627 25.2295 153.788 24.694 154.11 24.235C154.432 23.776 154.941 23.4189 155.639 23.1639C156.363 22.8834 157.302 22.7432 158.455 22.7432H163.243V22.8579C163.217 23.623 163.069 24.3752 162.801 25.1148C162.559 25.8288 162.184 26.4791 161.674 27.0656C161.191 27.6266 160.601 28.0729 159.904 28.4044Z" fill="#FFFFF0"></path><path fill-rule="evenodd" clip-rule="evenodd" d="M136.28 32C134.617 32 133.235 31.7322 132.135 31.1967C131.035 30.6612 130.217 29.9472 129.681 29.0546C129.144 28.1366 128.876 27.1548 128.876 26.1093C128.876 24.8342 129.225 23.7505 129.922 22.8579C130.62 21.9399 131.612 21.2386 132.9 20.7541C134.187 20.2696 135.73 20.0273 137.527 20.0273H142.798C142.798 18.9053 142.624 17.9745 142.275 17.235C141.926 16.4954 141.403 15.9472 140.706 15.5902C140.035 15.2077 139.177 15.0164 138.131 15.0164C136.924 15.0164 135.891 15.2969 135.032 15.8579C134.174 16.3934 133.637 17.1967 133.423 18.2678H129.399C129.56 16.9162 130.043 15.7687 130.848 14.8251C131.679 13.8561 132.739 13.1166 134.026 12.6066C135.314 12.071 136.682 11.8033 138.131 11.8033C140.035 11.8033 141.631 12.122 142.919 12.7596C144.206 13.3971 145.172 14.3024 145.816 15.4754C146.487 16.6229 146.822 18 146.822 19.6066C146.78 23.8596 145.569 30.0922 138.614 31.694C137.916 31.898 137.138 32 136.28 32ZM139.378 28.4044C138.681 28.7359 137.903 28.9016 137.044 28.9016C136.213 28.9016 135.502 28.7741 134.912 28.5191C134.321 28.2641 133.865 27.9198 133.544 27.4863C133.248 27.0273 133.101 26.479 133.101 25.8415C133.101 25.2295 133.262 24.694 133.584 24.235C133.906 23.776 134.415 23.4189 135.113 23.1639C135.837 22.8834 136.776 22.7432 137.93 22.7432H142.718V22.8579C142.691 23.6229 142.543 24.3752 142.275 25.1147C142.034 25.8288 141.658 26.4791 141.148 27.0656C140.666 27.6266 140.076 28.0729 139.378 28.4044Z" fill="#FFFFF0"></path><path fill-rule="evenodd" clip-rule="evenodd" d="M52.4035 31.9904C50.7404 31.9904 49.359 31.7227 48.2592 31.1872C47.1593 30.6516 46.3412 29.9376 45.8047 29.0451C45.2682 28.127 45 27.1453 45 26.0997C45 24.8247 45.3487 23.7409 46.0462 22.8484C46.7436 21.9303 47.7361 21.2291 49.0237 20.7445C50.3112 20.26 51.8536 20.0178 53.6508 20.0178H58.9218C58.9218 18.8957 58.7475 17.9649 58.3988 17.2254C58.05 16.4859 57.527 15.9376 56.8295 15.5806C56.1589 15.1981 55.3006 15.0068 54.2544 15.0068C53.0473 15.0068 52.0146 15.2873 51.1562 15.8484C50.2978 16.3839 49.7613 17.1872 49.5467 18.2582H45.5231C45.684 16.9066 46.1668 15.7591 46.9716 14.8156C47.8032 13.8465 48.8627 13.107 50.1503 12.597C51.4379 12.0615 52.8059 11.7937 54.2544 11.7937C56.159 11.7937 57.755 12.1125 59.0425 12.75C60.3301 13.3875 61.2958 14.2928 61.9396 15.4658C62.6102 16.6134 62.9455 17.9904 62.9455 19.597C62.9041 23.85 61.6925 30.0826 54.7372 31.6844C54.0398 31.8884 53.2619 31.9904 52.4035 31.9904ZM55.5017 28.3948C54.8043 28.7263 54.0264 28.8921 53.168 28.8921C52.3364 28.8921 51.6256 28.7646 51.0355 28.5096C50.4453 28.2546 49.9893 27.9103 49.6674 27.4768C49.3724 27.0178 49.2248 26.4695 49.2248 25.832C49.2248 25.2199 49.3858 24.6844 49.7077 24.2254C50.0296 23.7664 50.5392 23.4094 51.2367 23.1544C51.9609 22.8739 52.8998 22.7336 54.0532 22.7336H58.8414V22.8484C58.8145 23.6134 58.667 24.3657 58.3988 25.1052C58.1573 25.8192 57.7818 26.4695 57.2721 27.056C56.7893 27.617 56.1992 28.0633 55.5017 28.3948Z" fill="#FFFFF0"></path><path d="M86.0315 12.2623H90.9003L82.2161 21.0791L91.9866 31.541H86.9167L78.1852 21.6662V31.541H74.1615V4H78.1852V20.3607L86.0315 12.2623Z" fill="#FFFFF0"></path></svg>