<svg width="143" height="124" viewBox="0 0 143 124" fill="none" xmlns="http://www.w3.org/2000/svg">
<path d="M6.56626 116.418V123.738H0V89.7143H6.56626V107.57L15.9989 97.5662H23.9721L13.6536 108.716L23.9721 123.738H16.5201L9.32836 113.426L6.56626 116.418Z" fill="white"/>
<path d="M46.4446 120.31C43.821 122.77 40.6681 124 36.9861 124C33.304 124 30.1773 122.778 27.6061 120.336C25.0347 117.894 23.7492 114.683 23.7498 110.704C23.7498 106.692 25.0787 103.455 27.7365 100.995C30.3943 98.5339 33.5471 97.3037 37.195 97.3043C40.8429 97.3043 43.9524 98.5256 46.5234 100.968C49.0944 103.411 50.3798 106.622 50.3797 110.6C50.3793 114.614 49.0676 117.85 46.4446 120.31ZM32.4261 115.834C33.6589 117.23 35.2483 117.928 37.1944 117.928C39.1405 117.927 40.6865 117.238 41.8325 115.86C42.9787 114.482 43.5519 112.746 43.5519 110.652C43.5519 108.558 42.9787 106.822 41.8325 105.444C40.6862 104.065 39.1402 103.376 37.1944 103.376C35.2486 103.376 33.6592 104.073 32.4261 105.47C31.1925 106.866 30.5757 108.593 30.5759 110.652C30.5761 112.71 31.1929 114.438 32.4261 115.834Z" fill="white"/>
<path d="M67.5238 97.3042C70.8932 97.3042 73.7595 98.5605 76.1227 101.073C78.4858 103.586 79.667 106.779 79.6663 110.652C79.6663 114.526 78.4851 117.719 76.1227 120.231C73.7602 122.744 70.8939 124 67.5238 124C64.7789 124 62.5728 123.075 60.9053 121.226H60.1236L59.394 123.738H54.2869V89.7143H60.8008V100.131C62.469 98.2465 64.71 97.3043 67.5238 97.3042ZM62.3645 115.703C63.4067 116.942 64.7964 117.562 66.5336 117.562C67.3648 117.574 68.1898 117.417 68.9598 117.103C69.7297 116.788 70.4287 116.321 71.0154 115.73C72.2661 114.508 72.8914 112.816 72.8914 110.652C72.8914 108.488 72.2661 106.796 71.0154 105.575C70.4286 104.983 69.7295 104.517 68.9596 104.202C68.1897 103.887 67.3647 103.731 66.5336 103.743C64.7959 103.743 63.4062 104.362 62.3645 105.601C61.3229 106.84 60.8016 108.523 60.8008 110.652C60.8008 112.781 61.322 114.465 62.3645 115.703Z" fill="white"/>
<path d="M104.569 114.944C104.569 116.376 104.821 117.362 105.325 117.902C105.829 118.442 106.602 118.712 107.644 118.713V123.738H106.081C102.918 123.738 100.903 122.622 100.036 120.388C98.2978 122.796 95.5531 124 91.8016 124C88.848 124 86.5029 123.302 84.7662 121.906C83.0295 120.51 82.1609 118.626 82.1605 116.253C82.1411 115.044 82.4185 113.848 82.9682 112.772C83.5022 111.747 84.3039 110.888 85.2874 110.286C86.2437 109.684 87.2456 109.159 88.2839 108.715C89.4486 108.249 90.6644 107.924 91.9057 107.747C93.33 107.521 94.4591 107.373 95.293 107.302C96.1269 107.231 97.1171 107.162 98.2636 107.093C98.1594 104.337 96.6829 102.958 93.834 102.957C93.2179 102.947 92.6035 103.026 92.0101 103.193C91.5887 103.302 91.1912 103.488 90.8375 103.743C90.5986 103.929 90.388 104.15 90.212 104.397C90.0776 104.576 89.9802 104.781 89.9254 104.998L89.8732 105.208H83.359C83.6019 102.835 84.6529 100.925 86.512 99.476C88.3711 98.0275 90.8638 97.3035 93.9903 97.3043C97.2551 97.3043 99.8348 98.1767 101.729 99.9215C103.624 101.666 104.57 104.353 104.569 107.983L104.569 114.944ZM88.7261 116.044C88.7261 117.3 89.4557 118.103 90.9149 118.451C92.6169 118.87 94.2324 118.521 95.7616 117.405C97.2549 116.323 98.054 114.77 98.1588 112.746V112.222C97.1514 112.327 96.3611 112.423 95.788 112.51C95.2148 112.597 94.5026 112.711 93.6513 112.851C92.9703 112.949 92.2989 113.107 91.6448 113.322C91.1391 113.505 90.6434 113.714 90.1597 113.95C89.7208 114.14 89.3423 114.448 89.0653 114.84C88.8363 115.199 88.7183 115.618 88.7261 116.044Z" fill="white"/>
<path d="M111.552 89.7143H118.326V123.738H111.552V89.7143Z" fill="white"/>
<path d="M140.475 117.143L142.977 121.802C142.747 122.025 142.503 122.235 142.247 122.43C141.935 122.674 141.24 122.997 140.163 123.398C139.079 123.8 137.931 124.004 136.775 123.999C134.204 123.999 132.006 123.197 130.183 121.592C128.36 119.986 127.448 117.893 127.447 115.31V103.167H122.235V98.0371H124.841C125.744 98.0371 126.465 97.758 127.003 97.1997C127.542 96.6414 127.812 95.8909 127.811 94.9484V89.7143H134.117V97.5659H140.683V103.167H134.117V114.892C134.111 115.31 134.194 115.725 134.36 116.109C134.526 116.492 134.772 116.836 135.081 117.117C135.397 117.418 135.769 117.655 136.176 117.812C136.583 117.969 137.017 118.044 137.453 118.033C137.94 118.027 138.423 117.948 138.886 117.797C139.288 117.679 139.68 117.531 140.058 117.352L140.475 117.143Z" fill="white"/>
<path d="M98.1401 14V68.8571C83.219 68.8571 71.1335 56.5829 71.1335 41.4286C71.1335 26.2743 83.219 14 98.1401 14Z" fill="#F24725"/>
<path d="M71.1335 68.5714V0C52.4989 0 37.3752 15.36 37.3752 34.2857C37.3752 53.2114 52.4989 68.5714 71.1335 68.5714Z" fill="#F24725"/>
</svg>
